<svg width="1439" height="468" viewBox="0 0 1439 468" fill="none" xmlns="http://www.w3.org/2000/svg">
<g clip-path="url(#clip0)">
<path fill-rule="evenodd" clip-rule="evenodd" d="M1004.56 155.656L1006.31 169.848C1006.38 170.471 1005.75 170.995 1005.16 170.785L998.623 168.476C997.368 168.033 996.459 166.929 996.329 165.615L994.657 152.158L988.054 149.826L989.8 164.018C989.877 164.641 989.246 165.165 988.652 164.955L982.115 162.646C980.86 162.203 979.951 161.098 979.821 159.785L978.149 146.328L971.545 143.996L973.292 158.187C973.369 158.811 972.738 159.334 972.144 159.125L965.607 156.816C964.352 156.373 963.443 155.268 963.279 153.943L961.641 140.498L958.339 139.332C954.707 138.049 950.682 139.984 949.394 143.631L935.342 183.42C934.054 187.067 935.971 191.101 939.603 192.384L992.429 211.04C996.061 212.322 1000.09 210.388 1001.37 206.74L1016.6 163.636C1017.24 161.812 1016.28 159.796 1014.47 159.154L1004.56 155.656Z" fill="white"/>
</g>
<g clip-path="url(#clip1)">
<path d="M412.723 168.416C409.366 169.782 405.502 168.153 404.137 164.797L389.237 128.18C387.872 124.824 389.5 120.96 392.857 119.594C396.213 118.229 400.077 119.857 401.443 123.214L416.342 159.83C417.708 163.187 416.079 167.05 412.723 168.416Z" stroke="white" stroke-width="5" stroke-miterlimit="10" stroke-linecap="round" stroke-linejoin="round"/>
<path d="M396.792 164.229C393.436 165.594 389.572 163.966 388.206 160.609L380.757 142.301C379.391 138.944 381.02 135.081 384.376 133.715C387.733 132.349 391.596 133.978 392.962 137.334L400.412 155.643C401.778 158.999 400.149 162.863 396.792 164.229Z" stroke="white" stroke-width="5" stroke-miterlimit="10" stroke-linecap="round" stroke-linejoin="round"/>
<path d="M447.781 97.2454C451.138 95.8797 455.002 97.5084 456.367 100.865L471.267 137.481C472.632 140.838 471.004 144.702 467.647 146.067C464.291 147.433 460.427 145.804 459.061 142.448L444.162 105.831C442.796 102.475 444.425 98.6112 447.781 97.2454Z" stroke="white" stroke-width="5" stroke-miterlimit="10" stroke-linecap="round" stroke-linejoin="round"/>
<path d="M463.712 101.433C467.068 100.067 470.932 101.696 472.298 105.053L479.747 123.361C481.113 126.717 479.484 130.581 476.128 131.947C472.771 133.313 468.908 131.684 467.542 128.327L460.092 110.019C458.727 106.663 460.355 102.799 463.712 101.433Z" stroke="white" stroke-width="5" stroke-miterlimit="10" stroke-linecap="round" stroke-linejoin="round"/>
<path d="M408.893 141.522L451.612 124.14" stroke="white" stroke-width="5" stroke-miterlimit="10" stroke-linecap="round" stroke-linejoin="round"/>
</g>
<path d="M1005.34 421.5C1009.84 415.031 1012.38 407.438 1012.38 399C1012.38 391.406 1010.13 384.375 1006.47 378.469C1006.47 378.188 1006.19 378.188 1006.19 377.906C999.156 366.938 987.063 359.625 973 359.625C958.938 359.625 946.563 366.938 939.813 378.188C939.813 378.469 939.531 378.469 939.531 378.75C935.875 384.656 933.906 391.688 933.906 399.281C933.906 407.719 936.438 415.312 940.938 421.781L941.219 422.063C947.969 431.906 959.781 438.375 973 438.375C986.219 438.375 997.75 431.906 1005.06 422.063C1005.06 421.781 1005.06 421.781 1005.34 421.5ZM1001.13 417.281L991 418.688L987.063 414.75L992.688 398.438L1001.41 394.219L1007.03 397.594C1007.03 398.156 1007.03 398.719 1007.03 399.563C1006.75 405.75 1004.78 412.219 1001.13 417.281ZM1000.84 380.156L998.594 388.594L989.594 393.094L975.813 383.531V372.562L985.375 367.781C991.844 370.312 997.188 374.531 1000.84 380.156ZM960.344 367.781L970.188 372.562V383.531L956.406 393.375L947.125 388.875L944.875 380.156C948.813 374.531 954.156 370.312 960.344 367.781ZM939.25 397.031L944.875 393.656L953.594 398.156L959.219 414.469L955.281 418.406L944.875 417.281C941.219 411.938 939.25 405.75 939.25 399C939.25 398.438 939.25 397.594 939.25 397.031ZM964.281 431.625L959.5 422.063L962.875 418.688H983.125L986.5 422.063L981.719 431.625C978.906 432.469 976.094 432.75 973 432.75C969.906 432.75 967.094 432.188 964.281 431.625Z" fill="white"/>
<path d="M1064.5 325.812C1088.42 325.812 1107.81 306.421 1107.81 282.5C1107.81 258.579 1088.42 239.188 1064.5 239.188C1040.58 239.188 1021.19 258.579 1021.19 282.5C1021.19 306.421 1040.58 325.812 1064.5 325.812Z" stroke="white" stroke-width="6" stroke-miterlimit="10" stroke-linecap="round" stroke-linejoin="round"/>
<path d="M1064.5 288.688C1073.04 288.688 1079.97 281.762 1079.97 273.219C1079.97 264.676 1073.04 257.75 1064.5 257.75C1055.96 257.75 1049.03 264.676 1049.03 273.219C1049.03 281.762 1055.96 288.688 1064.5 288.688Z" stroke="white" stroke-width="6" stroke-miterlimit="10" stroke-linecap="round" stroke-linejoin="round"/>
<path d="M1031.71 310.653C1037.27 297.969 1049.65 288.997 1064.5 288.997C1079.35 288.997 1092.03 297.969 1097.29 310.653" stroke="white" stroke-width="6" stroke-miterlimit="10" stroke-linecap="round" stroke-linejoin="round"/>
<g clip-path="url(#clip2)">
<path d="M482.456 419.123L497.982 376.786L426.335 350.511L410.809 392.848" stroke="white" stroke-width="6" stroke-miterlimit="10" stroke-linecap="round" stroke-linejoin="round"/>
<path d="M483.866 445.502L392.679 412.062L403.969 401.424L482.129 430.087L483.866 445.502Z" stroke="white" stroke-width="6" stroke-miterlimit="10" stroke-linecap="round" stroke-linejoin="round"/>
<path d="M439.903 373.961L426.55 380.148L432.738 393.501" stroke="white" stroke-width="6" stroke-miterlimit="10" stroke-linecap="round" stroke-linejoin="round"/>
<path d="M472.47 385.904L478.657 399.256L465.304 405.444" stroke="white" stroke-width="6" stroke-miterlimit="10" stroke-linecap="round" stroke-linejoin="round"/>
<path d="M463.894 379.064L441.313 400.34" stroke="white" stroke-width="6" stroke-miterlimit="10" stroke-linecap="round" stroke-linejoin="round"/>
</g>
<g clip-path="url(#clip3)">
<path d="M1157.17 119.362C1166.89 117.559 1173.31 108.22 1171.51 98.5016C1169.7 88.7832 1160.36 82.3657 1150.65 84.1678C1140.93 85.9699 1134.51 95.3092 1136.31 105.028C1138.11 114.746 1147.45 121.164 1157.17 119.362Z" stroke="white" stroke-width="5" stroke-miterlimit="10" stroke-linecap="round" stroke-linejoin="round"/>
<path d="M1192.37 112.836C1202.08 111.033 1208.5 101.694 1206.7 91.9756C1204.9 82.2572 1195.56 75.8397 1185.84 77.6418C1176.12 79.4439 1169.7 88.7832 1171.51 98.5017C1173.31 108.22 1182.65 114.638 1192.37 112.836Z" stroke="white" stroke-width="5" stroke-miterlimit="10" stroke-linecap="round" stroke-linejoin="round"/>
<path d="M1207.89 157.282L1158.62 166.419C1154.75 167.136 1150.99 164.556 1150.27 160.685L1146.36 139.569C1145.64 135.698 1148.22 131.943 1152.09 131.225L1201.36 122.088C1205.23 121.371 1208.99 123.951 1209.71 127.822L1213.62 148.938C1214.34 152.81 1211.76 156.564 1207.89 157.282Z" stroke="white" stroke-width="5" stroke-miterlimit="10" stroke-linecap="round" stroke-linejoin="round"/>
<path d="M1236.04 152.061L1212.97 145.419L1210.36 131.341L1229.52 116.868L1236.04 152.061Z" stroke="white" stroke-width="5" stroke-miterlimit="10" stroke-linecap="round" stroke-linejoin="round"/>
<path d="M1173.09 185.577L1183.25 161.85L1201.25 180.356" stroke="white" stroke-width="5" stroke-miterlimit="10" stroke-linecap="round" stroke-linejoin="round"/>
<path d="M1154.56 105.284C1156.51 104.924 1157.79 103.056 1157.43 101.112C1157.07 99.1684 1155.2 97.8849 1153.26 98.2453C1151.31 98.6057 1150.03 100.474 1150.39 102.417C1150.75 104.361 1152.62 105.644 1154.56 105.284Z" stroke="white" stroke-width="5" stroke-miterlimit="10" stroke-linecap="round" stroke-linejoin="round"/>
<path d="M1189.76 98.758C1191.7 98.3976 1192.98 96.5298 1192.62 94.5861C1192.26 92.6424 1190.39 91.3589 1188.45 91.7193C1186.51 92.0797 1185.22 93.9476 1185.58 95.8913C1185.94 97.835 1187.81 99.1185 1189.76 98.758Z" stroke="white" stroke-width="5" stroke-miterlimit="10" stroke-linecap="round" stroke-linejoin="round"/>
</g>
<g clip-path="url(#clip4)">
<path d="M169.643 66.9769C171.202 66.3732 173.012 66.7748 174.168 67.981L192.674 83.0073C194.984 76.8732 201.418 73.5532 208.206 75.0594L271.555 89.1169C279.248 90.8239 283.825 98.0116 282.118 105.704L276.093 132.854C274.386 140.546 267.198 145.123 259.506 143.416L236.429 138.295L245.586 161.218C246.441 163.781 245.386 166.396 242.822 167.251C240.259 168.107 237.644 167.052 236.789 164.488L227.128 139.555L207.829 158.062C206.623 159.218 205.165 159.37 203.807 159.068C202.902 158.868 202.098 158.214 201.293 157.561C199.332 155.701 199.482 152.886 201.341 150.925L219.334 134.027L196.257 128.906C189.47 127.4 185.044 121.67 185.544 115.135L162.42 120.923C161.314 121.627 160.862 121.527 159.957 121.326C159.052 121.125 158.247 120.472 157.795 120.371C156.638 119.165 156.034 117.607 156.436 115.797L166.477 70.5473C166.778 69.1898 168.085 67.5807 169.643 66.9769Z" fill="white"/>
<path d="M230.309 18.243C239.812 20.3517 246.852 27.1365 250.223 35.481C256.807 29.3456 266.056 26.1755 275.559 28.2841C290.491 31.5977 299.997 46.5262 296.684 61.4585C293.37 76.3909 278.442 85.8972 263.509 82.5836C254.007 80.475 246.967 73.6902 243.596 65.3457C237.012 71.4811 227.762 74.6512 218.26 72.5426C203.327 69.229 193.821 54.3005 197.135 39.3681C200.448 24.4358 215.377 14.9295 230.309 18.243ZM267.526 64.4838C272.503 65.5883 277.479 62.4196 278.584 57.4421C279.689 52.4646 276.52 47.4885 271.542 46.384C266.565 45.2794 261.589 48.4482 260.484 53.4257C259.38 58.4031 262.548 63.3793 267.526 64.4838ZM222.276 54.4427C227.254 55.5472 232.23 52.3785 233.334 47.401C234.439 42.4236 231.27 37.4474 226.293 36.3429C221.315 35.2384 216.339 38.4071 215.235 43.3846C214.13 48.362 217.299 53.3382 222.276 54.4427Z" fill="white"/>
</g>
<g clip-path="url(#clip5)">
<path d="M1251.59 299.017C1250.85 297.7 1249.5 296.84 1247.99 296.716L1221.86 298.552L1215.92 296.02L1190.5 306.251L1190.5 306.257L1187.97 312.195L1167.87 328.967C1166.87 330.102 1166.49 331.657 1166.87 333.124C1166.87 333.145 1195.93 405.367 1195.98 405.487L1210.4 404.607L1212.1 408.844L1230.76 406.259L1230.76 406.26C1234.57 407.881 1238.86 407.923 1242.69 406.378L1245.17 405.383L1245.18 405.379L1247.65 404.383C1251.49 402.839 1254.55 399.835 1256.17 396.028L1271.42 384.967L1269.71 380.729L1280.72 371.374L1251.59 299.017Z" fill="#F93951"/>
<path d="M1240.95 394.768C1242.12 394.297 1242.69 392.966 1242.22 391.796C1241.75 390.626 1240.42 390.059 1239.25 390.53C1238.08 391.001 1237.51 392.332 1237.98 393.502C1238.45 394.671 1239.79 395.238 1240.95 394.768Z" fill="#F93951"/>
<path d="M1193.91 406.318C1194.28 407.23 1195.19 407.805 1196.17 407.745L1208.95 406.966L1210.04 409.676C1210.43 410.648 1211.43 411.229 1212.47 411.085L1230.52 408.584C1234.75 410.211 1239.37 410.178 1243.6 408.476L1246.07 407.48C1246.07 407.48 1246.08 407.479 1246.08 407.478C1246.08 407.477 1246.08 407.477 1246.08 407.476L1248.56 406.481C1252.78 404.779 1256.14 401.603 1258.06 397.497L1272.81 386.794C1273.66 386.179 1273.98 385.065 1273.59 384.093L1272.5 381.382L1282.25 373.093C1283 372.457 1283.26 371.412 1282.89 370.5C1280.03 363.383 1254.67 300.384 1253.76 298.143C1253.73 298.049 1253.68 297.958 1253.63 297.869C1252.28 295.477 1249.58 294.297 1247.88 294.416L1222.3 296.214L1216.86 293.898C1216.85 293.893 1216.84 293.889 1216.83 293.884C1216.28 293.661 1215.67 293.662 1215.12 293.878C1215.12 293.879 1215.12 293.88 1215.11 293.881L1189.69 304.115C1189.07 304.363 1188.62 304.859 1188.4 305.456L1186.14 310.772L1166.46 327.192C1164.91 328.491 1163.93 331.797 1164.8 333.955C1164.81 333.976 1193.86 406.199 1193.91 406.318ZM1197.51 403.094L1195.39 397.816L1205.38 398.118L1207.15 402.499L1197.51 403.094ZM1270.7 376.915L1268.94 372.535L1275.91 365.4L1278.04 370.679L1270.7 376.915ZM1216.87 311.471L1210.1 308.591L1216.8 298.834L1219.29 299.898L1216.87 311.471ZM1191.92 308.854L1203.48 311.262L1200.61 318.016L1190.86 311.346L1191.92 308.854ZM1209.82 300.935L1205.64 307.045L1198.39 305.536L1209.82 300.935ZM1169.52 330.577L1188.16 315.034L1200.33 323.359C1200.89 323.746 1201.6 323.859 1202.25 323.667C1202.91 323.476 1203.45 322.999 1203.72 322.37L1206.62 315.557L1234.58 385.022C1235.05 386.192 1236.38 386.759 1237.55 386.288C1238.72 385.817 1239.27 384.495 1238.8 383.325L1210.84 313.869L1217.64 316.75C1217.65 316.751 1217.65 316.753 1217.65 316.754L1217.66 316.757C1217.68 316.765 1217.7 316.77 1217.72 316.778C1219.04 317.298 1220.5 316.508 1220.79 315.123C1220.79 315.122 1220.79 315.122 1220.79 315.121L1220.79 315.12C1220.79 315.113 1220.79 315.106 1220.8 315.099L1223.8 300.688L1248 298.987C1248.65 299.082 1249.24 299.457 1249.59 300.014L1274.05 360.772L1267.07 367.906L1250.9 327.732C1250.43 326.562 1249.1 325.996 1247.93 326.467C1246.76 326.938 1246.19 328.268 1246.66 329.438C1248.17 333.179 1267.63 381.515 1268.69 384.144L1254.89 394.158C1254.55 394.401 1254.29 394.73 1254.13 395.111C1252.73 398.383 1250.15 400.916 1246.85 402.243L1246.5 402.386L1245.64 400.267C1245.17 399.097 1243.84 398.53 1242.67 399.001C1241.5 399.472 1240.93 400.802 1241.41 401.973L1242.26 404.091L1241.89 404.238C1238.6 405.566 1234.98 405.53 1231.71 404.137C1231.69 404.13 1231.67 404.122 1231.66 404.115C1231.29 403.969 1230.89 403.921 1230.5 403.975L1213.59 406.324L1212.57 403.786C1212.56 403.783 1212.56 403.78 1212.56 403.778C1211.62 401.449 1192.48 353.893 1191.57 351.619C1191.09 350.448 1189.79 349.873 1188.61 350.344C1187.44 350.815 1186.88 352.146 1187.35 353.316L1203.52 393.49L1193.53 393.188L1169.06 332.432C1168.93 331.782 1169.12 331.1 1169.52 330.577Z" fill="white"/>
<path d="M1236.1 346.003C1239.6 344.592 1241.31 340.593 1239.9 337.088L1236.48 328.613C1236.01 327.442 1234.68 326.876 1233.51 327.347L1225.04 330.758C1223.87 331.229 1223.3 332.56 1223.77 333.73L1227.18 342.205C1228.59 345.71 1232.59 347.414 1236.1 346.003ZM1228.86 334.143L1233.1 332.437L1235.66 338.794C1236.13 339.962 1235.56 341.295 1234.39 341.765C1233.22 342.236 1231.89 341.668 1231.42 340.499L1228.86 334.143Z" fill="white"/>
</g>
<g clip-path="url(#clip6)">
<path fill-rule="evenodd" clip-rule="evenodd" d="M210.978 433.343L208.957 404.711L203.871 432.063C198.595 431.016 192.889 429.635 186.831 427.803C181.019 426.045 175.703 424.122 170.901 422.175L181.855 396.514L164.239 419.309C153.271 414.312 145.731 409.5 142.085 406.961L190.025 357.288L224.255 367.64L236.043 435.217C231.629 435.317 222.769 435.187 210.978 433.343ZM191.763 325.207L177.107 325.551L174.198 314.962L202.248 302.829C202.537 308.057 204.508 322.95 217.612 326.913C231.485 331.108 241.064 318.482 243.406 314.991L260.365 341.028L252.083 348.227L240.024 339.785L226.265 362.292L191.255 351.704L191.763 325.207ZM235.909 315.279C232.498 319.013 226.532 323.654 219.262 321.455C212.168 319.309 209.509 312.126 208.507 306.89C218.04 313.383 225.653 315.352 235.909 315.279ZM229.958 367.179L241.723 347.935L252.46 355.447L267.857 342.079L246.067 308.636C240.547 309.575 222.914 313.654 203.922 295.895L167.382 311.697L172.791 331.352L185.946 331.048L185.514 353.75L133.549 407.591L135.976 409.552C136.694 410.132 153.859 423.788 185.18 433.261C216.501 442.733 238.733 440.838 239.661 440.743L242.742 440.465L229.958 367.179Z" fill="white"/>
</g>
<path d="M413.861 302.892L364.372 292.502C348.818 289.237 338.746 273.922 341.991 258.469C345.235 243.016 360.615 233.045 376.169 236.31L425.658 246.7C441.212 249.966 451.283 265.281 448.039 280.733C444.795 296.186 429.415 306.158 413.861 302.892Z" stroke="white" stroke-width="6" stroke-miterlimit="10" stroke-linecap="round" stroke-linejoin="round"/>
<path d="M416.376 255.752L381.027 248.331L373.653 283.451L409.003 290.872L416.376 255.752Z" stroke="white" stroke-width="6" stroke-miterlimit="10" stroke-linecap="round" stroke-linejoin="round"/>
<path d="M358.191 269.204L361.14 255.156" stroke="white" stroke-width="6" stroke-miterlimit="10" stroke-linecap="round" stroke-linejoin="round"/>
<path d="M366.735 263.664L352.595 260.696" stroke="white" stroke-width="6" stroke-miterlimit="10" stroke-linecap="round" stroke-linejoin="round"/>
<g clip-path="url(#clip7)">
<path d="M1340.97 249.563L1340.72 228.699C1340.37 224.21 1343.25 220.264 1347.45 218.978L1396.49 203.976C1385.49 168.013 1345.95 148.953 1310.34 164.444C1283.78 176.143 1268.22 205.42 1273.38 233.976C1276.09 249.493 1283.97 261.895 1295.01 271.285L1334.24 259.283C1338.45 257.997 1341.33 254.052 1340.97 249.563Z" stroke="white" stroke-width="6" stroke-miterlimit="10" stroke-linecap="round" stroke-linejoin="round"/>
<path d="M1313.61 250.272C1321.35 247.905 1325.7 239.713 1323.34 231.974C1320.97 224.236 1312.78 219.882 1305.04 222.249C1297.3 224.617 1292.95 232.809 1295.31 240.547C1297.68 248.286 1305.87 252.64 1313.61 250.272Z" stroke="white" stroke-width="6" stroke-miterlimit="10" stroke-linecap="round" stroke-linejoin="round"/>
<path d="M1343.06 246.37L1413.12 224.938L1419.69 246.422C1422.41 255.296 1417.54 264.445 1408.67 267.16L1368.5 279.448L1357.07 242.084" stroke="white" stroke-width="6" stroke-miterlimit="10" stroke-linecap="round" stroke-linejoin="round"/>
<path d="M1362.79 260.766L1418.84 243.62" stroke="white" stroke-width="6" stroke-miterlimit="10" stroke-linecap="round" stroke-linejoin="round"/>
</g>
<g clip-path="url(#clip8)">
<path d="M153.407 237.86C157.374 229.045 159.363 220.93 160.33 215.608L160.33 215.608C160.878 212.598 159.753 209.515 157.396 207.564C157.396 207.564 157.396 207.564 157.396 207.564L153.407 237.86ZM153.407 237.86L137.691 194.951L153.407 237.86ZM27.1135 267.353L27.1135 267.353C39.2711 277.412 71.9781 299.306 112.235 284.563L112.063 284.093L112.235 284.563C137.237 275.406 150.911 257.382 158.349 241.343C162.879 231.575 165.102 222.537 166.169 216.671L166.169 216.671C167.099 211.551 165.187 206.314 161.177 202.996L161.177 202.996C149.017 192.935 116.31 171.042 76.0547 185.785C35.8156 200.524 24.9303 238.21 22.1215 253.677C21.1906 258.796 23.1041 264.035 27.1135 267.353ZM27.9555 254.74L27.9555 254.74C28.9233 249.414 30.9052 241.297 34.8761 232.478L50.596 275.397C41.8564 271.194 35.0791 266.246 30.8922 262.783C28.5344 260.832 27.4085 257.748 27.9555 254.74ZM110.194 278.994C90.2537 286.297 72.2675 283.869 58.0806 278.586L38.543 225.243C45.9773 212.09 58.1542 198.657 78.0928 191.353C98.0326 184.05 116.019 186.477 130.207 191.761L149.744 245.102C142.311 258.257 130.134 271.691 110.194 278.994Z" fill="white" stroke="white"/>
<path d="M90.849 239.539L93.7445 247.445C94.0263 248.214 93.9683 249.025 93.6494 249.713C93.3305 250.4 92.749 250.968 91.9797 251.25C90.4424 251.815 88.7386 251.024 88.1753 249.486L85.2797 241.58L76.3223 244.861L79.2178 252.767C79.4996 253.536 79.4416 254.347 79.1226 255.035C78.8037 255.722 78.222 256.29 77.4526 256.572C75.9146 257.135 74.2106 256.346 73.6485 254.808L90.849 239.539ZM90.849 239.539L99.8065 236.259L102.702 244.164C103.265 245.703 104.968 246.492 106.506 245.929C107.275 245.647 107.857 245.079 108.176 244.391C108.495 243.704 108.553 242.893 108.271 242.123L105.376 234.218L114.333 230.937L117.282 238.989C117.846 240.527 119.548 241.317 121.086 240.753C121.856 240.471 122.437 239.903 122.756 239.216C123.075 238.528 123.133 237.717 122.852 236.948L119.902 228.896L127.834 225.991C128.604 225.709 129.185 225.141 129.504 224.453C129.823 223.766 129.881 222.955 129.599 222.185C129.036 220.647 127.334 219.857 125.795 220.421L117.864 223.326L114.915 215.274L114.914 215.272C114.346 213.743 112.644 212.953 111.107 213.517C109.569 214.081 108.779 215.783 109.343 217.321L112.292 225.373L103.334 228.654L100.332 220.458C99.7705 218.92 98.0664 218.13 96.5282 218.693C94.9898 219.257 94.2003 220.959 94.7637 222.497L97.7656 230.693L88.808 233.974L85.8055 225.779C85.2422 224.241 83.5387 223.451 82.0015 224.015C80.4631 224.578 79.6735 226.28 80.237 227.819L80.237 227.819L83.2394 236.013M90.849 239.539L83.2394 236.013M70.753 246.902L73.6484 254.807L70.753 246.902ZM70.753 246.902L63.5353 249.545C63.5353 249.545 63.5352 249.545 63.5351 249.545C61.9981 250.11 60.2927 249.319 59.7308 247.781C59.1675 246.242 59.9571 244.54 61.4954 243.977L68.7135 241.333L65.7131 233.138C65.1497 231.6 65.9392 229.898 67.4776 229.334C69.0156 228.771 70.7196 229.561 71.2817 231.099L70.753 246.902ZM83.2394 236.013L74.2821 239.294L71.2818 231.099L83.2394 236.013Z" fill="white" stroke="white"/>
</g>
<defs>
<clipPath id="clip0">
<rect width="70.0292" height="56.2627" fill="white" transform="translate(951.736 137) rotate(19.4515)"/>
</clipPath>
<clipPath id="clip1">
<rect width="105.418" height="105.418" fill="white" transform="translate(361.564 103.875) rotate(-22.1415)"/>
</clipPath>
<clipPath id="clip2">
<rect width="111" height="111" fill="white" transform="translate(417.217 325) rotate(20.1391)"/>
</clipPath>
<clipPath id="clip3">
<rect width="127.567" height="127.567" fill="white" transform="translate(1115.92 71.3365) rotate(-10.5051)"/>
</clipPath>
<clipPath id="clip4">
<rect width="148.321" height="148.321" fill="white" transform="matrix(-0.976253 -0.216635 -0.216635 0.976253 317.288 32.7961)"/>
</clipPath>
<clipPath id="clip5">
<rect width="116.942" height="116.942" fill="white" transform="translate(1148.17 320.831) rotate(-21.9272)"/>
</clipPath>
<clipPath id="clip6">
<rect width="136.841" height="136.841" fill="white" transform="translate(159.461 282.52) rotate(16.8272)"/>
</clipPath>
<clipPath id="clip7">
<rect width="156.293" height="156.293" fill="white" transform="translate(1243 169.721) rotate(-17.0099)"/>
</clipPath>
<clipPath id="clip8">
<rect width="165.6" height="165.6" fill="white" transform="translate(-14.7615 274.647) rotate(-65.1156)"/>
</clipPath>
</defs>
</svg>
