<svg width="9333.3" height="6666.7"><path d="M0 6666.7h9333.3V0H0z" fill="#fff"/><path d="M1930 4871s-51.5 48.7-123.1 139.9c-168.3 214.2-447.8 663-430.9 1265.3l-511.7-750.3s11.8-55.4 56-134.9c42.9-77.1 116.2-177 238.8-270.8 133.8-102.6 326.4-198 602.2-249.1H1930" fill="#ff2c2c"/><path d="M1376 6274.6v-.4.4m0-2c0 .1 0 0 0 0M1632.3 5272l.1-.2v.2m.4-1l.2-.2-.2.3m.7-1.1l.2-.5-.2.5m.4-.9l.4-.6-.4.6m.5-.8a2088 2088 0 01172.4-257.3 2019.6 2019.6 0 00-172.3 257.3" fill="#dedede"/><path d="M1376 6276.2l-511.7-750.3s11.8-55.4 56-134.9c26.2 110.3 90.3 275.3 238.4 275.3 39.2 0 84.3-11.5 136-38.6 211.5-110.7 241-358 373.4-569.7 45.5-13.4 91.8-29 138.8-47.1a2088 2088 0 00-172.4 257.3l-.1.2-.4.6-.2.4-.2.5-.5.8-.2.3-.4.7v.2l-1.2 2c-136.6 242.2-266.2 584-255.4 998.8v1.9l.1 1.6" fill="#de2626"/><path d="M1234.2 5122.2c-25.5 0-50.5-.7-75.1-2a1103 1103 0 01131-86c20.8 1.1 42.2 1.7 63.9 1.7 113 0 236.8-16 368.2-54.3a771.4 771.4 0 00-54.1 76.4 1540.5 1540.5 0 01-433.9 64.2" fill="#c22121"/><path d="M1668 5058a771.4 771.4 0 0154.2-76.4c50.5-14.8 102-32.8 154.6-54.5a1772.6 1772.6 0 00-70 83.8c-47 18.1-93.2 33.7-138.7 47" fill="#a91d1d"/><path d="M1961.9 4618.2V4889c-19.6 9.5-39.1 18.4-58.4 26.8-725 315.1-1273.2-73.8-1213.3-211 61.5-140.7 119.5-672 119.5-672l77.5 39.4L1900.5 4587l61.4 31.1" fill="#ff2c2c"/><path d="M1260.6 5032.2c-362-28.7-591.7-219.1-574-315.7-17.6 96.6 212 287 574 315.7m-563-346c54.2-151.3 103.9-580.4 111.2-645.2v.1c-7.4 65.4-57 494-111.2 645m112-653.3" fill="#dedede"/><path d="M1354 5036c-32 0-63.2-1.4-93.4-3.8-362-28.7-591.6-219.1-574-315.7.8-4 2-8 3.6-11.6 2.5-5.7 5-12 7.4-18.8 54.1-151 103.8-579.6 111.1-645-2 37.1 22.4 75.8 74 99.5-29.9 155.2-92.4 719 578.4 719.1 122.2 0 268.6-18.6 444.2-62V4915c-200.2 87.4-387 121-551.3 121" fill="#de2626"/><path d="M1961.9 4618.2s-733.3-379-1046-465.7c-312.9-86.6 65.6-633.6 1046 465.7" fill="#ff8d8d"/><path d="M1899.2 4570.2c-125.9-63.7-403.3-201.5-650.2-307.8l-33.6-14.3c-113.2-48-218-88-296-109.6-33.8-9.4-60.6-24.9-77.7-44.8a71.7 71.7 0 01-18.8-55.8c4.8-39.8 49.6-80 138.6-83 3.5-.2 7-.2 10.7-.2 72 0 196 23.9 378.6 137.7 169 105.5 353.3 266 548.4 477.8" fill="#990505"/><path d="M1215.4 4248c-113.2-47.8-218-87.9-296-109.5-33.8-9.4-60.6-24.9-77.7-44.8a73.9 73.9 0 01-19.3-48.1c0-2.6.2-5.1.5-7.7 4.8-39.8 49.6-80 138.6-83-2.6 74.4 34 194.4 253.9 293.2" fill="#850404"/><path d="M2361.1 4871s51.5 48.7 123 139.9c168.3 214.2 447.8 663 430.9 1265.3l511.7-750.3s-11.8-55.4-56-134.9c-42.8-77.1-116.2-177-238.7-270.8-134-102.6-326.5-198-602.3-249.1H2361" fill="#ff2c2c"/><path d="M2915 6274.6v-.4.4m0-1.8l.1-.2v.2M2915 6269.2v-.1.1M2694.5 5337.8l-.1-.2v.2m-.5-1l-.1-.3.1.3m-.6-1.2v-.2.2m-.5-1l-.2-.3.2.3m-1.1-2.1l-.3-.6.3.6m-.5-1l-.3-.6.3.7m-.4-.8l-.7-1.3.7 1.3m-.8-1.5l-.4-.7.4.7m-.4-.7a2039.4 2039.4 0 00-275.3-401.6c19.4 21.9 43.3 50 70 83.9 60.4 76.9 135.1 184 205.3 317.7" fill="#dedede"/><path d="M2915 6276.2v-1.6-.4-1.4l.1-.2v-1.7-1.7-.1c9.2-376.8-97.5-693.2-219.6-929.1l-1.1-2.2-.1-.2-.5-.8-.1-.3-.5-.9v-.2l-.5-.8-.2-.3-.3-.6-.2-.4-.4-.8-.3-.6-.2-.3-.3-.7-.1-.1-.7-1.3v-.2l-.5-.7a2095.3 2095.3 0 00-205.3-317.7c47 18.1 93.3 33.7 138.8 47 132.3 211.9 161.8 459 373.3 569.8 51.8 27 96.8 38.6 136 38.6 148.2 0 212.2-165 238.4-275.3 44.2 79.5 56 135 56 135L2915 6276.1" fill="#de2626"/><path d="M3056.8 5122.2c-133.2 0-279-18.8-433.8-64.2a770 770 0 00-54.2-76.4 1311.7 1311.7 0 00368.3 54.3c21.7 0 43-.6 63.9-1.7a1103 1103 0 01131 86c-24.6 1.3-49.7 2-75.2 2" fill="#c22121"/><path d="M2623 5058c-45.5-13.4-91.8-29-138.8-47.1-26.7-34-50.6-62-70-83.9a1518.2 1518.2 0 00154.6 54.6 770 770 0 0154.2 76.4" fill="#a91d1d"/><path d="M2378.4 4911.7c-16.3-7.2-32.7-14.7-49.2-22.7v-270.8l48.8-24.8 1025.8-521.2 77.6-39.5s58 531.4 119.4 672.2c60.2 137.7-492.8 529.3-1222.4 206.8" fill="#ff2c2c"/><path d="M3001 5034.2c394.3-21.3 641-235 599.8-329.3-16-36.8-31.9-100.3-46.5-174 14.6 73.7 30.5 137.2 46.5 174 41.3 94.4-205.5 308-599.8 329.3M2414.2 4927" fill="#dedede"/><path d="M2414.2 4927" fill="#c1c1c1"/><path d="M2937 5036a1311.5 1311.5 0 000 0 1181.2 1181.2 0 010 0" fill="#a91d1d"/><path d="M2568.8 4981.6a1523.1 1523.1 0 000 0" fill="#931919"/><path d="M2937 5036c-113 0-236.7-16-368.2-54.4-50.4-14.8-102-32.9-154.6-54.6a1644.8 1644.8 0 01-46-19.8v-113.8c183.4 46.4 335.5 66.3 461.7 66.3 670.8 0 608.3-564 578.4-719.1 51.7-23.7 76.1-62.4 74-99.6 5.5 48.8 34.8 302.4 72 490 14.6 73.6 30.4 137 46.5 173.9 41.3 94.4-205.5 308-599.8 329.3-20.9 1.1-42.2 1.7-64 1.7m544.4-1003.1" fill="#de2626"/><path d="M2329.2 4618.2s733.2-379 1046-465.7c312.8-86.6-65.7-633.6-1046 465.7" fill="#ff8d8d"/><path d="M2391.8 4570.2c126-63.7 403.4-201.5 650.2-307.8l33.6-14.3c113.2-48 218-88 296.1-109.6 33.7-9.4 60.6-24.9 77.6-44.8a71.7 71.7 0 0018.9-55.8c-4.9-39.8-49.7-80-138.6-83-3.5-.2-7.1-.2-10.8-.2-71.9 0-196 23.9-378.5 137.7-169.1 105.5-353.4 266-548.5 477.8" fill="#990505"/><path d="M3075.6 4248c220-98.7 256.5-218.7 254-293.1 89 3 133.7 43.2 138.6 83a74 74 0 01-18.8 55.8c-17.1 20-44 35.4-77.7 44.8-78.1 21.6-182.9 61.7-296 109.6" fill="#850404"/><path d="M1905.3 4915a1655.8 1655.8 0 010 0m0-117.3v-208.2l22.2 11.2c-1.4 4.6-2 9.4-1.8 14.3 1.4 34.6 2.3 73.3 2.5 114.3v19.2c0 14.8 0 29.4-.2 43.6l-22.7 5.6" fill="#c22121"/><path d="M1905.3 4915v-117.3l22.7-5.6c-.4 29.7-1 58-2 84.2l-.1 1.4c0 9 2.7 17.7 7.6 24.6a1716 1716 0 01-28.2 12.6" fill="#a91d1d"/><path d="M2351.7 4899.6l-9.3-4.3c3 1.5 6.2 2.9 9.3 4.3m16.5-106.2l-20.6-5.3a4825.8 4825.8 0 01-.3-59.5c.2-38.2 1-74.4 2.1-107.4.2-4.3-.3-8.5-1.3-12.6l20.1-10.2v195" fill="#c22121"/><path d="M2368.2 4907.2a1782.2 1782.2 0 01-25.8-12 42.3 42.3 0 007.2-25.6v-1.8a3181 3181 0 01-2-79.7l20.6 5.3v113.8" fill="#a91d1d"/><path d="M2349.6 4869.6a3373.1 3373.1 0 01-.2-248.4 40.7 40.7 0 00-16.7-35.1c-47-32.2-114.4-51.8-203.3-51.8-82.4 0-143.3 16.8-186.2 44.9a40.7 40.7 0 00-17.5 35.8c1.6 40 2.5 85.4 2.5 133.5 0 45.8-.8 89.2-2.3 127.8a40.7 40.7 0 0017.6 35.7c42.9 28 103.7 44.7 185.9 44.7 89 0 156.5-19.6 203.6-52a40.6 40.6 0 0016.6-35" fill="#ff2c2c"/><path d="M1925.9 4877.7v-1.4 1.4" fill="#931919"/><path d="M1928.2 4748.5v-1.2 1.2m0-1.2v-18 18M2347.3 4742.5v-14 14" fill="#a91d1d"/><path d="M2129.4 4956.7c-82.2 0-143-16.7-186-44.7a40.6 40.6 0 01-17.5-34.3v-1.4c1.5-38.6 2.3-82 2.3-127.8v-1.2-18c29.8 94.9 112.3 163.1 209.5 163.1 97.4 0 180-68.6 209.7-163.9v14a3632.7 3632.7 0 002.2 125.3v3.5c0 8.8-2.5 17.2-7.2 24-2.6 3.7-5.7 6.9-9.4 9.4-47 32.4-114.5 52-203.6 52" fill="#de2626"/><path d="M2291.7 4649c-33.7 0-91.7-13.6-157.7-13.6-66 0-124.1 13.6-157.8 13.6-19.3 0-30.6-4.5-30.6-18.8 0-39 84.3-70.7 188.4-70.7 104 0 188.3 31.7 188.3 70.7 0 14.3-11.2 18.8-30.6 18.8" fill="#fd4949"/></svg>