<svg width="398" height="408" viewBox="0 0 398 408" fill="none" xmlns="http://www.w3.org/2000/svg">
<path d="M7.68164 114.298V340.103L197.067 407.008V170.052L7.68164 114.298Z" fill="#FF3A1A"/>
<path d="M197.067 170.052L390.814 117.086V340.103L197.067 407.008V170.052Z" fill="#B22720"/>
<path d="M0 112.705L197.067 170.052V97.2898L0 43.79V112.705Z" fill="#FF3A1A"/>
<path d="M197.067 97.294C199.214 96.6688 398 47.3529 398 47.3529V117.09L197.067 170.056V97.294Z" fill="#B22720"/>
<path d="M0 43.79L197.067 3.11774L398 47.3488L197.067 97.2898L0 43.79Z" fill="#FF8366"/>
<path d="M390.814 118.98L197.067 170.052V186.107C197.067 186.107 316.476 153.945 349.75 151.596C383.024 149.247 390.814 153.855 390.814 153.855V118.98Z" fill="#9B211E"/>
<path d="M7.68164 114.298L197.067 170.052V186.107L7.68164 118.98V114.298Z" fill="#B22720"/>
<path d="M98.5333 70.54L311.837 28.3817L271.017 19.3959L65.6814 61.6215L98.5333 70.54Z" fill="#62CEF9"/>
<path d="M286.31 75.1093L102.374 22.6611L136.002 15.7208L321.44 65.3645L286.31 75.1093Z" fill="#62CEF9"/>
<path d="M39.8715 162.791C39.8715 175.668 35.2981 186.107 29.657 186.107C24.0159 186.107 19.4424 175.668 19.4424 162.791C19.4424 149.914 24.0111 139.474 29.657 139.474C35.3029 139.474 39.8715 149.913 39.8715 162.791Z" fill="#FFB39F"/>
<path d="M74.5901 196.836C80.2319 196.836 84.8055 186.397 84.8055 173.519C84.8055 160.642 80.2319 150.202 74.5901 150.202C68.9483 150.202 64.3748 160.642 64.3748 173.519C64.3748 186.397 68.9483 196.836 74.5901 196.836Z" fill="#FFB39F"/>
<path d="M78.1431 296.382C83.7849 296.382 88.3585 285.942 88.3585 273.065C88.3585 260.187 83.7849 249.748 78.1431 249.748C72.5013 249.748 67.9277 260.187 67.9277 273.065C67.9277 285.942 72.5013 296.382 78.1431 296.382Z" fill="#FFB39F"/>
<path d="M118.352 348.122C118.352 361 113.779 371.439 108.138 371.439C102.497 371.439 97.9224 361 97.9224 348.122C97.9224 335.244 102.496 324.806 108.138 324.806C113.78 324.806 118.352 335.245 118.352 348.122Z" fill="#FFB39F"/>
<path d="M118.964 233.503C118.964 246.381 114.39 256.82 108.748 256.82C103.106 256.82 98.533 246.381 98.533 233.503C98.533 220.625 103.106 210.187 108.748 210.187C114.39 210.187 118.964 220.626 118.964 233.503Z" fill="#FFB39F"/>
<path d="M149.886 192.028C149.886 204.905 144.204 215.344 137.194 215.344C130.185 215.344 124.503 204.905 124.503 192.028C124.503 179.151 130.185 168.711 137.194 168.711C144.204 168.711 149.886 179.15 149.886 192.028Z" fill="#FFB39F"/>
<path d="M142.713 312.616C150.562 312.616 156.925 302.177 156.925 289.299C156.925 276.422 150.562 265.982 142.713 265.982C134.864 265.982 128.501 276.422 128.501 289.299C128.501 302.177 134.864 312.616 142.713 312.616Z" fill="#FFB39F"/>
<path d="M178.31 365.427C178.31 378.304 171.947 388.744 164.097 388.744C156.248 388.744 149.885 378.304 149.885 365.427C149.885 352.55 156.249 342.111 164.097 342.111C171.946 342.111 178.31 352.55 178.31 365.427Z" fill="#FFB39F"/>
<path d="M170.785 260.835C177.913 260.835 183.691 250.396 183.691 237.518C183.691 224.64 177.913 214.201 170.785 214.201C163.657 214.201 157.879 224.64 157.879 237.518C157.879 250.396 163.657 260.835 170.785 260.835Z" fill="#FFB39F"/>
<path d="M224.813 220.153C231.94 220.153 237.719 209.714 237.719 196.836C237.719 183.959 231.94 173.519 224.813 173.519C217.685 173.519 211.906 183.959 211.906 196.836C211.906 209.714 217.685 220.153 224.813 220.153Z" fill="#DD998C"/>
<path d="M224.813 319.699C231.94 319.699 237.719 309.259 237.719 296.382C237.719 283.504 231.94 273.065 224.813 273.065C217.685 273.065 211.906 283.504 211.906 296.382C211.906 309.259 217.685 319.699 224.813 319.699Z" fill="#DD998C"/>
<path d="M260.492 375.592C268.627 375.592 275.221 363.678 275.221 348.981C275.221 334.285 268.627 322.371 260.492 322.371C252.358 322.371 245.763 334.285 245.763 348.981C245.763 363.678 252.358 375.592 260.492 375.592Z" fill="#DD998C"/>
<path d="M280.711 240.861C280.711 253.738 274.933 264.178 267.806 264.178C260.679 264.178 254.902 253.738 254.902 240.861C254.902 227.984 260.68 217.545 267.806 217.545C274.932 217.545 280.711 227.984 280.711 240.861Z" fill="#DD998C"/>
<path d="M309.48 199.177C316.607 199.177 322.386 188.738 322.386 175.86C322.386 162.983 316.607 152.543 309.48 152.543C302.352 152.543 296.573 162.983 296.573 175.86C296.573 188.738 302.352 199.177 309.48 199.177Z" fill="#DD998C"/>
<path d="M319.745 359.25C326.872 359.25 332.651 348.81 332.651 335.933C332.651 323.055 326.872 312.616 319.745 312.616C312.617 312.616 306.839 323.055 306.839 335.933C306.839 348.81 312.617 359.25 319.745 359.25Z" fill="#DD998C"/>
<path d="M350.384 260.653C350.384 273.53 344.606 283.97 337.48 283.97C330.353 283.97 324.575 273.53 324.575 260.653C324.575 247.776 330.353 237.336 337.48 237.336C344.606 237.336 350.384 247.776 350.384 260.653Z" fill="#DD998C"/>
<path d="M350.384 196.836C356.42 196.836 361.314 186.397 361.314 173.519C361.314 160.642 356.42 150.202 350.384 150.202C344.348 150.202 339.455 160.642 339.455 173.519C339.455 186.397 344.348 196.836 350.384 196.836Z" fill="#DD998C"/>
<path d="M375.121 316.378C375.121 329.255 370.227 339.694 364.191 339.694C358.155 339.694 353.261 329.255 353.261 316.378C353.261 303.501 358.155 293.061 364.191 293.061C370.227 293.061 375.121 303.501 375.121 316.378Z" fill="#DD998C"/>
<path d="M386.048 233.503C386.048 246.381 381.155 256.82 375.118 256.82C369.082 256.82 364.189 246.381 364.189 233.503C364.189 220.625 369.082 210.187 375.118 210.187C381.155 210.187 386.048 220.626 386.048 233.503Z" fill="#DD998C"/>
<path d="M60.3029 218.606C60.3029 231.484 55.7294 241.923 50.0875 241.923C44.4456 241.923 39.8713 231.484 39.8713 218.606C39.8713 205.728 44.4448 195.29 50.0867 195.29C55.7286 195.29 60.3029 205.729 60.3029 218.606Z" fill="#FFB39F"/>
<path d="M34.9868 274.807C34.9868 287.685 30.4134 298.124 24.7715 298.124C19.1296 298.124 14.5569 287.685 14.5569 274.807C14.5569 261.929 19.1304 251.491 24.7715 251.491C30.4126 251.491 34.9868 261.93 34.9868 274.807Z" fill="#FFB39F"/>
<path d="M50.0874 350.087C55.7292 350.087 60.3028 339.648 60.3028 326.77C60.3028 313.893 55.7292 303.453 50.0874 303.453C44.4456 303.453 39.8721 313.893 39.8721 326.77C39.8721 339.648 44.4456 350.087 50.0874 350.087Z" fill="#FFB39F"/>
<path d="M65.6816 61.6216L61.4736 359.106L108.138 375.592L98.5335 70.5401L65.6816 61.6216Z" fill="#5BBDEF"/>
<path d="M286.31 75.1094L288.044 375.592L332.65 360.188L321.44 65.3645L286.31 75.1094Z" fill="#4DA6C1"/>
<path d="M146.816 77.9652C151.13 74.3712 155.506 70.7387 160.585 68.347C160.375 73.7559 160.66 79.1727 161.437 84.5297C167.547 73.3557 179.486 66.865 188.508 57.8767C189.804 56.5855 191.115 55.0762 191.213 53.2496C191.205 52.3486 190.963 51.4651 190.51 50.6859C190.058 49.9067 189.41 49.2586 188.632 48.8051C187.061 47.917 185.304 47.4071 183.502 47.3159C176.421 46.6138 168.604 48.3859 162.764 52.5546C160.68 54.0447 159.418 56.2376 157.73 58.1292C155.304 60.7715 153.164 63.6632 151.347 66.756C149.337 70.2704 147.812 74.0412 146.816 77.9652Z" fill="#62CEF9"/>
<path d="M203.962 69.1228C202.094 75.1118 198.651 80.4707 195.134 85.6662C197.965 84.7966 200.735 83.7365 203.423 82.493L217.149 76.5152C217.497 80.6926 217.128 84.8988 216.057 88.9516C223.713 82.4939 229.829 74.4069 233.958 65.2819C234.739 63.7747 235.206 62.1249 235.333 60.432C235.304 58.841 234.896 57.2798 234.142 55.8785C231.957 51.6673 228.353 48.3654 223.967 46.5577C219.589 44.7796 214.818 44.1986 210.142 44.8745C208.167 45.1342 205.942 45.7032 204.474 47.1388C202.42 49.1426 203.177 50.7232 204.032 53.0395C205.932 58.1845 205.576 63.9546 203.962 69.1228Z" fill="#62CEF9"/>
<path d="M123.883 63.1666C126.608 63.6147 133.885 63.7205 136.559 63.024C153.257 58.6789 165.093 57.3853 183.083 53.8394C185.853 53.2935 188.712 53.227 191.429 52.4616C192.589 52.1337 193.926 51.4797 194.015 50.2774C194.017 49.6706 193.791 49.0853 193.382 48.6367C192.089 47.0337 189.973 46.3828 187.967 45.9115C176.335 43.1864 164.228 43.7298 152.29 43.2473C145.928 42.99 139.516 42.4402 133.225 43.4212C127.294 44.3462 121.056 46.8677 117.167 51.6424C113.645 55.9642 119.291 62.4108 123.883 63.1666Z" fill="#4B9EBF"/>
<path d="M197.378 35.6121C193.649 29.8412 187.684 25.9434 181.767 22.456C172.002 16.7008 161.873 11.587 151.445 7.14696C145.398 4.57328 138.979 2.18475 132.433 2.76345C127.864 3.16421 123.003 5.51105 121.532 9.8601C119.889 14.7141 123.024 19.8615 126.561 23.5701C137.649 35.2001 153.687 40.9943 169.613 43.0951C176.498 44.0023 183.451 44.2934 190.387 43.9647C192.42 43.8678 196.312 44.3046 197.973 42.8033C200.053 40.9238 198.602 37.5069 197.378 35.6121Z" fill="#457FDD"/>
<path d="M168.337 32.2707C148.224 26.9638 117.977 15.975 124.093 6.09705C113.914 13.8718 107.162 27.0848 108.257 39.845C108.712 45.1463 110.522 50.696 114.77 53.9013C116.707 55.2704 118.885 56.2624 121.189 56.8252C129.037 58.9893 137.356 58.4835 145.452 57.6219C163.196 55.7335 180.724 52.2389 198.225 48.7491C198.579 46.6603 201.718 39.9636 199.356 39.9685C196.52 39.8752 193.706 39.4301 190.979 38.6435C184.065 36.9179 175.221 34.0869 168.337 32.2707Z" fill="#5BBDEF"/>
<path d="M201.151 50.8169C202.113 51.4349 227.578 58.3617 227.578 58.3617C235.559 60.0016 243.737 60.4679 251.853 59.7459C265.626 58.5813 283.199 55.1267 283.199 55.1267C283.199 55.1267 270.476 50.7504 269.894 50.2038C269.312 49.6571 201.426 43.7916 201.426 43.7916L201.151 50.8169Z" fill="#4B9EBF"/>
<path d="M196.489 37.741C199.763 31.7023 205.409 27.3557 211.043 23.4234C220.336 16.9362 230.042 11.0602 240.098 5.83247C245.929 2.80113 252.145 -0.0731224 258.718 0.00141891C263.307 0.0527162 268.33 2.01644 270.132 6.23884C272.143 10.9526 269.411 16.3252 266.171 20.2951C256.009 32.7395 240.465 39.7496 224.745 43.0679C217.951 44.502 211.041 45.3263 204.1 45.5309C202.065 45.591 198.219 46.3252 196.448 44.9562C194.226 43.2402 195.41 39.7223 196.489 37.741Z" fill="#457FDD"/>
<path d="M225.824 32.1753C245.47 25.3383 273.852 11.8423 266.999 2.46375C277.745 9.42975 286.423 22.3037 286.311 35.1096C286.266 40.4309 284.886 46.1033 280.898 49.6251C279.073 51.139 276.979 52.2955 274.726 53.034C267.068 55.7976 258.734 55.9299 250.596 55.6926C232.759 55.1733 215.014 53.0364 197.295 50.9012C196.781 48.8461 193.137 42.4107 195.492 42.2335C198.313 41.9226 201.084 41.2627 203.743 40.269C210.5 38.0167 219.097 34.5149 225.824 32.1753Z" fill="#5BBDEF"/>
<path d="M197.28 31.1115C195.635 30.8735 193.957 31.0654 192.409 31.6686C190.326 32.3491 188.192 33.3758 187.079 35.265C186.309 36.8459 185.963 38.6003 186.076 40.3555C186.061 41.9051 186.095 43.4515 186.177 44.9947C186.165 46.206 186.411 47.4059 186.898 48.5149C188.161 50.9435 191.238 51.697 193.959 51.9879C197.683 52.3862 201.438 52.4096 205.167 52.0576C206.753 51.9078 208.436 51.6449 209.628 50.5868C211.062 49.3132 211.411 47.2261 211.486 45.3088C211.649 41.0263 210.89 36.7587 209.261 32.7947C209.011 32.1056 208.648 31.4629 208.187 30.8927C207.072 29.8327 205.605 29.2212 204.068 29.1751C200.415 28.7884 196.731 29.4977 193.483 31.2125L197.28 31.1115Z" fill="#5BBDEF"/>
<path d="M209.66 32.988C209.41 32.2989 209.048 31.6561 208.587 31.086C207.791 30.2684 206.753 29.7293 205.626 29.5487C206.88 33.1069 207.452 36.87 207.309 40.6401C207.235 42.5574 206.885 44.6477 205.451 45.9181C204.259 46.9753 202.576 47.239 200.991 47.3889C197.262 47.741 193.507 47.7174 189.783 47.3184C188.744 47.2189 187.716 47.0252 186.712 46.7397C186.795 47.4238 186.993 48.0891 187.298 48.7074C188.56 51.136 191.637 51.8895 194.359 52.1812C198.083 52.5796 201.838 52.6027 205.567 52.2501C207.153 52.1003 208.836 51.8374 210.027 50.7802C211.461 49.5065 211.81 47.4194 211.885 45.5021C212.048 41.2196 211.289 36.9519 209.66 32.988Z" fill="#4B9EBF"/>
<path opacity="0.36" d="M189.175 37.5382C188.805 39.2951 189.143 41.4352 190.692 42.3425C190.962 42.5218 191.276 42.6255 191.6 42.643C191.924 42.6604 192.247 42.591 192.535 42.4419C193.468 41.8592 193.299 40.4926 193.515 39.4145C193.654 38.7611 193.969 38.1578 194.424 37.6692C194.88 37.1806 195.46 36.825 196.102 36.6405C197.044 36.3832 198.051 36.5154 199.006 36.3159C200.548 35.9952 201.419 34.587 200.288 33.3294C199.529 32.4806 196.888 32.3243 195.764 32.3219C194.229 32.2835 192.729 32.7844 191.525 33.7374C190.322 34.6905 189.49 36.0354 189.175 37.5382Z" fill="white"/>
<path opacity="0.36" d="M114.14 24.8445C111.78 30.8671 109.38 37.3354 110.773 43.6506C110.966 44.5226 111.787 45.5991 112.506 45.0701C112.682 44.9205 112.812 44.7248 112.883 44.505C113.409 43.1769 113.332 41.6997 113.53 40.2826C113.728 38.8655 114.341 37.3426 115.658 36.7848C117.245 36.1123 118.983 37.1286 120.562 37.8267C122.093 38.4999 123.735 38.8857 125.406 38.9649C126.958 39.0378 128.882 38.5433 129.221 37.026C129.477 35.8766 128.634 34.7617 127.683 34.0676C126.658 33.4872 125.705 32.7877 124.844 31.9837C124.082 31.0852 123.874 29.5382 124.819 28.8353C125.205 28.6301 125.632 28.5125 126.068 28.4911C126.505 28.4696 126.941 28.5447 127.345 28.711C132.773 30.1538 137.889 32.7852 143.445 33.6067C144.246 33.7784 145.077 33.7509 145.865 33.5266C146.256 33.4056 146.599 33.1655 146.846 32.8398C147.094 32.5141 147.233 32.1192 147.245 31.7103C147.167 31.3164 147 30.9453 146.759 30.6246C146.517 30.304 146.206 30.0422 145.848 29.8588C143.63 28.3824 141.016 27.6506 138.506 26.7529C133.885 25.1011 129.507 22.8366 125.489 20.0202C123.892 18.8981 122.221 17.4553 122.07 15.514C121.977 14.3118 122.475 11.6667 120.415 11.9465C119.293 12.0972 118.899 13.7026 118.532 14.5113C116.996 17.9114 115.505 21.3571 114.14 24.8445Z" fill="white"/>
<path opacity="0.36" d="M265.802 14.8304C266.649 13.9024 267.643 13.1199 268.744 12.514C269.299 12.2177 269.923 12.0747 270.551 12.0997C271.18 12.1248 271.791 12.3171 272.32 12.6567C273.34 13.4286 273.632 14.8048 274.231 15.9349C275.092 17.2688 276.128 18.4818 277.31 19.5418C279.907 22.3081 281.666 25.7545 282.382 29.4806C282.473 29.7542 282.499 30.0452 282.459 30.3308C282.418 30.6163 282.312 30.8886 282.148 31.1261C281.563 31.7401 280.49 31.3209 279.943 30.6708C278.795 29.3083 278.328 26.9173 276.547 26.8236C275.368 26.7642 274.506 27.8439 273.618 28.6198C272.73 29.3956 271.111 29.802 270.554 28.7624C270.393 28.4152 270.352 28.0238 270.439 27.6507C270.644 26.5045 271.438 25.5475 271.776 24.4334C272.114 23.3193 271.68 21.7644 270.519 21.6562C270.034 21.6562 269.56 21.7998 269.157 22.0689C267.287 23.0981 265.578 24.3933 263.809 25.5852C254.952 31.5488 244.662 35.0356 234.005 35.6844C232.93 35.7477 231.47 35.4495 231.44 34.3731C231.418 33.4553 232.528 32.9744 233.444 32.883C239.205 32.3051 245.326 29.055 250.314 26.2833C255.952 23.1553 261.159 19.3052 265.802 14.8304Z" fill="white"/>
</svg>
